<svg width="471" height="471" viewBox="0 0 471 471" fill="none" xmlns="http://www.w3.org/2000/svg">
<g clip-path="url(#clip0_0_6)">
<g filter="url(#filter0_d_0_6)">
<rect width="471" height="471" rx="20" fill="#04B1B8"/>
</g>
<g filter="url(#filter1_d_0_6)">
<rect x="15" y="346" width="100" height="100" rx="20" fill="#8DC0BC"/>
</g>
<g filter="url(#filter2_d_0_6)">
<rect x="128" y="346" width="100" height="100" rx="20" fill="#2A9EB8"/>
</g>
<g filter="url(#filter3_d_0_6)">
<rect x="239" y="346" width="100" height="100" rx="20" fill="#EDC14F"/>
</g>
<g filter="url(#filter4_d_0_6)">
<rect x="350" y="346" width="100" height="100" rx="20" fill="#FD6800"/>
</g>
<g filter="url(#filter5_d_0_6)">
<path d="M86.4 90.55H65.9V150H49V90.55H28.5V77.15H86.4V90.55ZM108.41 106.15C110.01 103.35 111.843 101.15 113.91 99.55C116.01 97.95 118.41 97.15 121.11 97.15C123.443 97.15 125.343 97.7 126.81 98.8L125.81 110.2C125.643 110.933 125.36 111.433 124.96 111.7C124.593 111.967 124.077 112.1 123.41 112.1C123.143 112.1 122.793 112.083 122.36 112.05C121.927 112.017 121.477 111.983 121.01 111.95C120.543 111.883 120.06 111.833 119.56 111.8C119.093 111.733 118.66 111.7 118.26 111.7C115.993 111.7 114.177 112.3 112.81 113.5C111.477 114.7 110.343 116.367 109.41 118.5V150H93.9102V98.15H103.11C103.877 98.15 104.51 98.2167 105.01 98.35C105.543 98.4833 105.977 98.7 106.31 99C106.677 99.2667 106.943 99.6333 107.11 100.1C107.31 100.567 107.477 101.133 107.61 101.8L108.41 106.15ZM157.944 98.15V150H142.444V98.15H157.944ZM159.544 83.95C159.544 85.1833 159.294 86.35 158.794 87.45C158.294 88.5167 157.61 89.4667 156.744 90.3C155.877 91.1 154.86 91.75 153.694 92.25C152.56 92.7167 151.344 92.95 150.044 92.95C148.777 92.95 147.594 92.7167 146.494 92.25C145.394 91.75 144.41 91.1 143.544 90.3C142.71 89.4667 142.044 88.5167 141.544 87.45C141.077 86.35 140.844 85.1833 140.844 83.95C140.844 82.6833 141.077 81.5 141.544 80.4C142.044 79.3 142.71 78.3333 143.544 77.5C144.41 76.6667 145.394 76.0167 146.494 75.55C147.594 75.0833 148.777 74.85 150.044 74.85C151.344 74.85 152.56 75.0833 153.694 75.55C154.86 76.0167 155.877 76.6667 156.744 77.5C157.61 78.3333 158.294 79.3 158.794 80.4C159.294 81.5 159.544 82.6833 159.544 83.95ZM194.254 135.9C195.421 137.167 196.687 138.067 198.054 138.6C199.421 139.133 200.854 139.4 202.354 139.4C203.787 139.4 205.104 139.117 206.304 138.55C207.504 137.983 208.537 137.083 209.404 135.85C210.304 134.583 211.004 132.95 211.504 130.95C212.004 128.95 212.254 126.517 212.254 123.65C212.254 120.917 212.054 118.617 211.654 116.75C211.254 114.883 210.687 113.383 209.954 112.25C209.254 111.083 208.404 110.25 207.404 109.75C206.404 109.25 205.287 109 204.054 109C201.787 109 199.921 109.417 198.454 110.25C196.987 111.083 195.587 112.3 194.254 113.9V135.9ZM193.304 104.55C195.337 102.383 197.637 100.617 200.204 99.25C202.804 97.85 205.887 97.15 209.454 97.15C212.154 97.15 214.654 97.75 216.954 98.95C219.254 100.15 221.237 101.883 222.904 104.15C224.571 106.417 225.871 109.2 226.804 112.5C227.771 115.767 228.254 119.483 228.254 123.65C228.254 127.55 227.704 131.15 226.604 134.45C225.537 137.75 224.021 140.617 222.054 143.05C220.121 145.483 217.787 147.383 215.054 148.75C212.354 150.117 209.354 150.8 206.054 150.8C203.354 150.8 201.087 150.417 199.254 149.65C197.421 148.883 195.754 147.85 194.254 146.55V166.45H178.754V98.15H188.354C190.287 98.15 191.554 99.0167 192.154 100.75L193.304 104.55ZM59.75 262.9C64.15 262.9 67.3167 261.85 69.25 259.75C71.1833 257.65 72.15 254.717 72.15 250.95C72.15 249.283 71.9 247.767 71.4 246.4C70.9 245.033 70.1333 243.867 69.1 242.9C68.1 241.9 66.8167 241.133 65.25 240.6C63.7167 240.067 61.8833 239.8 59.75 239.8H50.95V262.9H59.75ZM59.75 227.15C64.8833 227.15 69.2833 227.767 72.95 229C76.65 230.2 79.6833 231.867 82.05 234C84.45 236.133 86.2167 238.65 87.35 241.55C88.4833 244.45 89.05 247.583 89.05 250.95C89.05 254.583 88.4667 257.917 87.3 260.95C86.1333 263.983 84.35 266.583 81.95 268.75C79.55 270.917 76.5 272.617 72.8 273.85C69.1333 275.05 64.7833 275.65 59.75 275.65H50.95V300H34.05V227.15H59.75ZM121.324 225.15V300H105.824V225.15H121.324ZM168.551 278.9C165.451 279.033 162.901 279.3 160.901 279.7C158.901 280.1 157.317 280.6 156.151 281.2C154.984 281.8 154.167 282.483 153.701 283.25C153.267 284.017 153.051 284.85 153.051 285.75C153.051 287.517 153.534 288.767 154.501 289.5C155.467 290.2 156.884 290.55 158.751 290.55C160.751 290.55 162.501 290.2 164.001 289.5C165.501 288.8 167.017 287.667 168.551 286.1V278.9ZM140.651 255.35C143.784 252.583 147.251 250.533 151.051 249.2C154.884 247.833 158.984 247.15 163.351 247.15C166.484 247.15 169.301 247.667 171.801 248.7C174.334 249.7 176.467 251.117 178.201 252.95C179.967 254.75 181.317 256.9 182.251 259.4C183.184 261.9 183.651 264.633 183.651 267.6V300H176.551C175.084 300 173.967 299.8 173.201 299.4C172.467 299 171.851 298.167 171.351 296.9L170.251 294.05C168.951 295.15 167.701 296.117 166.501 296.95C165.301 297.783 164.051 298.5 162.751 299.1C161.484 299.667 160.117 300.083 158.651 300.35C157.217 300.65 155.617 300.8 153.851 300.8C151.484 300.8 149.334 300.5 147.401 299.9C145.467 299.267 143.817 298.35 142.451 297.15C141.117 295.95 140.084 294.467 139.351 292.7C138.617 290.9 138.251 288.833 138.251 286.5C138.251 284.633 138.717 282.75 139.651 280.85C140.584 278.917 142.201 277.167 144.501 275.6C146.801 274 149.901 272.667 153.801 271.6C157.701 270.533 162.617 269.933 168.551 269.8V267.6C168.551 264.567 167.917 262.383 166.651 261.05C165.417 259.683 163.651 259 161.351 259C159.517 259 158.017 259.2 156.851 259.6C155.684 260 154.634 260.45 153.701 260.95C152.801 261.45 151.917 261.9 151.051 262.3C150.184 262.7 149.151 262.9 147.951 262.9C146.884 262.9 145.984 262.633 145.251 262.1C144.517 261.567 143.917 260.933 143.451 260.2L140.651 255.35ZM217.859 253.75C218.859 252.817 219.892 251.95 220.959 251.15C222.025 250.35 223.159 249.683 224.359 249.15C225.592 248.583 226.909 248.15 228.309 247.85C229.742 247.517 231.292 247.35 232.959 247.35C235.792 247.35 238.292 247.85 240.459 248.85C242.659 249.817 244.509 251.183 246.009 252.95C247.509 254.683 248.642 256.767 249.409 259.2C250.175 261.6 250.559 264.217 250.559 267.05V300H235.059V267.05C235.059 264.517 234.475 262.55 233.309 261.15C232.142 259.717 230.425 259 228.159 259C226.459 259 224.859 259.367 223.359 260.1C221.892 260.8 220.459 261.767 219.059 263V300H203.559V248.15H213.159C215.092 248.15 216.359 249.017 216.959 250.75L217.859 253.75ZM284.89 253.75C285.89 252.817 286.923 251.95 287.99 251.15C289.057 250.35 290.19 249.683 291.39 249.15C292.623 248.583 293.94 248.15 295.34 247.85C296.773 247.517 298.323 247.35 299.99 247.35C302.823 247.35 305.323 247.85 307.49 248.85C309.69 249.817 311.54 251.183 313.04 252.95C314.54 254.683 315.673 256.767 316.44 259.2C317.207 261.6 317.59 264.217 317.59 267.05V300H302.09V267.05C302.09 264.517 301.507 262.55 300.34 261.15C299.173 259.717 297.457 259 295.19 259C293.49 259 291.89 259.367 290.39 260.1C288.923 260.8 287.49 261.767 286.09 263V300H270.59V248.15H280.19C282.123 248.15 283.39 249.017 283.99 250.75L284.89 253.75ZM369.871 267.85C369.871 266.617 369.704 265.417 369.371 264.25C369.071 263.083 368.554 262.05 367.821 261.15C367.121 260.217 366.188 259.467 365.021 258.9C363.854 258.333 362.438 258.05 360.771 258.05C357.838 258.05 355.538 258.9 353.871 260.6C352.204 262.267 351.104 264.683 350.571 267.85H369.871ZM350.371 276.85C350.871 281.183 352.188 284.333 354.321 286.3C356.454 288.233 359.204 289.2 362.571 289.2C364.371 289.2 365.921 288.983 367.221 288.55C368.521 288.117 369.671 287.633 370.671 287.1C371.704 286.567 372.638 286.083 373.471 285.65C374.338 285.217 375.238 285 376.171 285C377.404 285 378.338 285.45 378.971 286.35L383.471 291.9C381.871 293.733 380.138 295.233 378.271 296.4C376.438 297.533 374.538 298.433 372.571 299.1C370.638 299.733 368.688 300.167 366.721 300.4C364.788 300.667 362.938 300.8 361.171 300.8C357.538 300.8 354.121 300.217 350.921 299.05C347.754 297.85 344.971 296.083 342.571 293.75C340.204 291.417 338.321 288.517 336.921 285.05C335.554 281.583 334.871 277.55 334.871 272.95C334.871 269.483 335.454 266.2 336.621 263.1C337.821 260 339.521 257.283 341.721 254.95C343.954 252.617 346.638 250.767 349.771 249.4C352.938 248.033 356.504 247.35 360.471 247.35C363.904 247.35 367.038 247.883 369.871 248.95C372.738 250.017 375.188 251.567 377.221 253.6C379.288 255.633 380.888 258.133 382.021 261.1C383.188 264.033 383.771 267.367 383.771 271.1C383.771 272.267 383.721 273.217 383.621 273.95C383.521 274.683 383.338 275.267 383.071 275.7C382.804 276.133 382.438 276.433 381.971 276.6C381.538 276.767 380.971 276.85 380.271 276.85H350.371ZM416.027 256.15C417.627 253.35 419.461 251.15 421.527 249.55C423.627 247.95 426.027 247.15 428.727 247.15C431.061 247.15 432.961 247.7 434.427 248.8L433.427 260.2C433.261 260.933 432.977 261.433 432.577 261.7C432.211 261.967 431.694 262.1 431.027 262.1C430.761 262.1 430.411 262.083 429.977 262.05C429.544 262.017 429.094 261.983 428.627 261.95C428.161 261.883 427.677 261.833 427.177 261.8C426.711 261.733 426.277 261.7 425.877 261.7C423.611 261.7 421.794 262.3 420.427 263.5C419.094 264.7 417.961 266.367 417.027 268.5V300H401.527V248.15H410.727C411.494 248.15 412.127 248.217 412.627 248.35C413.161 248.483 413.594 248.7 413.927 249C414.294 249.267 414.561 249.633 414.727 250.1C414.927 250.567 415.094 251.133 415.227 251.8L416.027 256.15Z" fill="#EDC14F"/>
</g>
<g filter="url(#filter6_d_0_6)">
<path d="M440.07 108.125C428.3 108.052 420.177 117.022 420.177 117.022L395.667 142.126L350.72 124.16C339.375 122.208 332.5 129.25 329.062 132.771L326.041 135.865C325.824 136.088 325.86 136.452 326.117 136.628L370.56 166.987C370.136 167.421 362.617 176.746 353.449 186.953C352.94 187.519 352.164 187.755 351.421 187.639L336.069 180.371C333.903 179.531 331.458 180.07 329.821 181.747L319.666 192.148C319.205 192.62 319.319 193.402 319.897 193.721L349.688 210.229L365.784 240.703C366.101 241.303 366.91 241.42 367.384 240.935L377.496 230.577C379.133 228.9 379.659 226.396 378.839 224.178L371.743 208.453C371.63 207.692 371.86 206.898 372.412 206.377C382.378 196.986 391.482 189.284 391.906 188.851L421.534 234.352C421.709 234.62 422.087 234.657 422.311 234.428L425.312 231.354C432.188 224.313 435.625 213.75 433.72 209.171L416.179 163.135L440.689 138.031C440.689 138.031 449.447 129.71 449.375 117.655C449.343 112.363 445.238 108.158 440.07 108.125Z" fill="#545151" fill-opacity="0.24"/>
</g>
<g filter="url(#filter7_d_0_6)">
<path d="M391.54 54.7506C377.202 54.6605 367.306 65.5946 367.306 65.5946L337.448 96.1952L282.696 74.2952C268.875 71.9167 260.5 80.5 256.312 84.7917L252.541 88.6573C252.324 88.8796 252.36 89.2439 252.616 89.4192L306.864 126.499C306.348 127.028 297.188 138.394 286.019 150.837C285.4 151.526 284.455 151.813 283.55 151.673L264.847 142.813C262.209 141.79 259.231 142.446 257.236 144.49L244.665 157.374C244.204 157.846 244.319 158.627 244.896 158.947L281.438 179.208L301.186 216.619C301.502 217.219 302.312 217.336 302.786 216.85L315.313 204.011C317.308 201.967 317.948 198.915 316.95 196.211L308.305 177.044C308.168 176.116 308.447 175.147 309.121 174.513C321.261 163.066 332.351 153.678 332.867 153.149L369.034 208.726C369.209 208.995 369.588 209.032 369.811 208.803L373.562 204.958C381.938 196.375 386.125 183.5 383.804 177.919L362.436 121.804L392.294 91.2035C392.294 91.2035 402.962 81.0612 402.874 66.3667C402.836 59.9153 397.835 54.7902 391.54 54.7506Z" fill="#0F1A2E"/>
</g>
</g>
<defs>
<filter id="filter0_d_0_6" x="-4" y="0" width="479" height="479" filterUnits="userSpaceOnUse" color-interpolation-filters="sRGB">
<feFlood flood-opacity="0" result="BackgroundImageFix"/>
<feColorMatrix in="SourceAlpha" type="matrix" values="0 0 0 0 0 0 0 0 0 0 0 0 0 0 0 0 0 0 127 0" result="hardAlpha"/>
<feOffset dy="4"/>
<feGaussianBlur stdDeviation="2"/>
<feComposite in2="hardAlpha" operator="out"/>
<feColorMatrix type="matrix" values="0 0 0 0 0 0 0 0 0 0 0 0 0 0 0 0 0 0 0.25 0"/>
<feBlend mode="normal" in2="BackgroundImageFix" result="effect1_dropShadow_0_6"/>
<feBlend mode="normal" in="SourceGraphic" in2="effect1_dropShadow_0_6" result="shape"/>
</filter>
<filter id="filter1_d_0_6" x="11" y="346" width="108" height="108" filterUnits="userSpaceOnUse" color-interpolation-filters="sRGB">
<feFlood flood-opacity="0" result="BackgroundImageFix"/>
<feColorMatrix in="SourceAlpha" type="matrix" values="0 0 0 0 0 0 0 0 0 0 0 0 0 0 0 0 0 0 127 0" result="hardAlpha"/>
<feOffset dy="4"/>
<feGaussianBlur stdDeviation="2"/>
<feComposite in2="hardAlpha" operator="out"/>
<feColorMatrix type="matrix" values="0 0 0 0 0 0 0 0 0 0 0 0 0 0 0 0 0 0 0.25 0"/>
<feBlend mode="normal" in2="BackgroundImageFix" result="effect1_dropShadow_0_6"/>
<feBlend mode="normal" in="SourceGraphic" in2="effect1_dropShadow_0_6" result="shape"/>
</filter>
<filter id="filter2_d_0_6" x="124" y="346" width="108" height="108" filterUnits="userSpaceOnUse" color-interpolation-filters="sRGB">
<feFlood flood-opacity="0" result="BackgroundImageFix"/>
<feColorMatrix in="SourceAlpha" type="matrix" values="0 0 0 0 0 0 0 0 0 0 0 0 0 0 0 0 0 0 127 0" result="hardAlpha"/>
<feOffset dy="4"/>
<feGaussianBlur stdDeviation="2"/>
<feComposite in2="hardAlpha" operator="out"/>
<feColorMatrix type="matrix" values="0 0 0 0 0 0 0 0 0 0 0 0 0 0 0 0 0 0 0.25 0"/>
<feBlend mode="normal" in2="BackgroundImageFix" result="effect1_dropShadow_0_6"/>
<feBlend mode="normal" in="SourceGraphic" in2="effect1_dropShadow_0_6" result="shape"/>
</filter>
<filter id="filter3_d_0_6" x="235" y="346" width="108" height="108" filterUnits="userSpaceOnUse" color-interpolation-filters="sRGB">
<feFlood flood-opacity="0" result="BackgroundImageFix"/>
<feColorMatrix in="SourceAlpha" type="matrix" values="0 0 0 0 0 0 0 0 0 0 0 0 0 0 0 0 0 0 127 0" result="hardAlpha"/>
<feOffset dy="4"/>
<feGaussianBlur stdDeviation="2"/>
<feComposite in2="hardAlpha" operator="out"/>
<feColorMatrix type="matrix" values="0 0 0 0 0 0 0 0 0 0 0 0 0 0 0 0 0 0 0.25 0"/>
<feBlend mode="normal" in2="BackgroundImageFix" result="effect1_dropShadow_0_6"/>
<feBlend mode="normal" in="SourceGraphic" in2="effect1_dropShadow_0_6" result="shape"/>
</filter>
<filter id="filter4_d_0_6" x="346" y="346" width="108" height="108" filterUnits="userSpaceOnUse" color-interpolation-filters="sRGB">
<feFlood flood-opacity="0" result="BackgroundImageFix"/>
<feColorMatrix in="SourceAlpha" type="matrix" values="0 0 0 0 0 0 0 0 0 0 0 0 0 0 0 0 0 0 127 0" result="hardAlpha"/>
<feOffset dy="4"/>
<feGaussianBlur stdDeviation="2"/>
<feComposite in2="hardAlpha" operator="out"/>
<feColorMatrix type="matrix" values="0 0 0 0 0 0 0 0 0 0 0 0 0 0 0 0 0 0 0.25 0"/>
<feBlend mode="normal" in2="BackgroundImageFix" result="effect1_dropShadow_0_6"/>
<feBlend mode="normal" in="SourceGraphic" in2="effect1_dropShadow_0_6" result="shape"/>
</filter>
<filter id="filter5_d_0_6" x="24.5" y="74.85" width="413.927" height="233.95" filterUnits="userSpaceOnUse" color-interpolation-filters="sRGB">
<feFlood flood-opacity="0" result="BackgroundImageFix"/>
<feColorMatrix in="SourceAlpha" type="matrix" values="0 0 0 0 0 0 0 0 0 0 0 0 0 0 0 0 0 0 127 0" result="hardAlpha"/>
<feOffset dy="4"/>
<feGaussianBlur stdDeviation="2"/>
<feComposite in2="hardAlpha" operator="out"/>
<feColorMatrix type="matrix" values="0 0 0 0 0 0 0 0 0 0 0 0 0 0 0 0 0 0 0.25 0"/>
<feBlend mode="normal" in2="BackgroundImageFix" result="effect1_dropShadow_0_6"/>
<feBlend mode="normal" in="SourceGraphic" in2="effect1_dropShadow_0_6" result="shape"/>
</filter>
<filter id="filter6_d_0_6" x="301" y="87" width="173" height="177" filterUnits="userSpaceOnUse" color-interpolation-filters="sRGB">
<feFlood flood-opacity="0" result="BackgroundImageFix"/>
<feColorMatrix in="SourceAlpha" type="matrix" values="0 0 0 0 0 0 0 0 0 0 0 0 0 0 0 0 0 0 127 0" result="hardAlpha"/>
<feOffset dy="4"/>
<feGaussianBlur stdDeviation="2"/>
<feComposite in2="hardAlpha" operator="out"/>
<feColorMatrix type="matrix" values="0 0 0 0 0 0 0 0 0 0 0 0 0 0 0 0 0 0 0.25 0"/>
<feBlend mode="normal" in2="BackgroundImageFix" result="effect1_dropShadow_0_6"/>
<feBlend mode="normal" in="SourceGraphic" in2="effect1_dropShadow_0_6" result="shape"/>
</filter>
<filter id="filter7_d_0_6" x="223" y="29" width="209" height="214" filterUnits="userSpaceOnUse" color-interpolation-filters="sRGB">
<feFlood flood-opacity="0" result="BackgroundImageFix"/>
<feColorMatrix in="SourceAlpha" type="matrix" values="0 0 0 0 0 0 0 0 0 0 0 0 0 0 0 0 0 0 127 0" result="hardAlpha"/>
<feOffset dy="4"/>
<feGaussianBlur stdDeviation="2"/>
<feComposite in2="hardAlpha" operator="out"/>
<feColorMatrix type="matrix" values="0 0 0 0 0 0 0 0 0 0 0 0 0 0 0 0 0 0 0.25 0"/>
<feBlend mode="normal" in2="BackgroundImageFix" result="effect1_dropShadow_0_6"/>
<feBlend mode="normal" in="SourceGraphic" in2="effect1_dropShadow_0_6" result="shape"/>
</filter>
<clipPath id="clip0_0_6">
<rect width="471" height="471" rx="2" fill="white"/>
</clipPath>
</defs>
</svg>
