<svg width="1036" height="456" viewBox="0 0 1036 456" fill="none" xmlns="http://www.w3.org/2000/svg">
<g clip-path="url(#clip0_1_57)">
<g filter="url(#filter0_d_1_57)">
<rect x="6" y="3" width="1024" height="450" rx="20" fill="#04B1B8"/>
</g>
<g filter="url(#filter1_d_1_57)">
<path fill-rule="evenodd" clip-rule="evenodd" d="M672.42 407.905C771.51 432.81 872.084 372.455 897.057 273.096C922.03 173.738 861.946 73.0016 762.855 48.0958C663.764 23.1901 563.191 83.546 538.218 182.904C530.705 212.794 530.89 242.808 537.518 270.845L714.085 226.115L557.735 321.526C581.914 363.115 622.147 395.269 672.42 407.905Z" fill="#8DC0BC" fill-opacity="0.63" shape-rendering="crispEdges"/>
</g>
<g filter="url(#filter2_d_1_57)">
<path fill-rule="evenodd" clip-rule="evenodd" d="M793 413C900.696 413 988 325.696 988 218C988 110.304 900.696 23 793 23C685.304 23 598 110.304 598 218C598 250.398 605.901 280.95 619.881 307.835L788.884 216.988L653.569 354.323C688.972 390.529 738.362 413 793 413Z" fill="#8DC0BC"/>
</g>
<g filter="url(#filter3_d_1_57)">
<path d="M168.39 70.75H129.15V181H104.94V70.75H65.7V50.86H168.39V70.75ZM202.774 104.68C205.654 99.16 209.074 94.84 213.034 91.72C216.994 88.54 221.674 86.95 227.074 86.95C231.334 86.95 234.754 87.88 237.334 89.74L235.894 106.39C235.594 107.47 235.144 108.25 234.544 108.73C234.004 109.15 233.254 109.36 232.294 109.36C231.394 109.36 230.044 109.21 228.244 108.91C226.504 108.61 224.794 108.46 223.114 108.46C220.654 108.46 218.464 108.82 216.544 109.54C214.624 110.26 212.884 111.31 211.324 112.69C209.824 114.01 208.474 115.63 207.274 117.55C206.134 119.47 205.054 121.66 204.034 124.12V181H181.804V88.66H194.854C197.134 88.66 198.724 89.08 199.624 89.92C200.524 90.7 201.124 92.14 201.424 94.24L202.774 104.68ZM289.993 88.66V181H267.673V88.66H289.993ZM293.053 61.75C293.053 63.67 292.663 65.47 291.883 67.15C291.103 68.83 290.053 70.3 288.733 71.56C287.473 72.82 285.973 73.84 284.233 74.62C282.493 75.34 280.633 75.7 278.653 75.7C276.733 75.7 274.903 75.34 273.163 74.62C271.483 73.84 270.013 72.82 268.753 71.56C267.493 70.3 266.473 68.83 265.693 67.15C264.973 65.47 264.613 63.67 264.613 61.75C264.613 59.77 264.973 57.91 265.693 56.17C266.473 54.43 267.493 52.93 268.753 51.67C270.013 50.41 271.483 49.42 273.163 48.7C274.903 47.92 276.733 47.53 278.653 47.53C280.633 47.53 282.493 47.92 284.233 48.7C285.973 49.42 287.473 50.41 288.733 51.67C290.053 52.93 291.103 54.43 291.883 56.17C292.663 57.91 293.053 59.77 293.053 61.75ZM352.886 157.06C355.406 160.12 358.136 162.28 361.076 163.54C364.076 164.8 367.316 165.43 370.796 165.43C374.156 165.43 377.186 164.8 379.886 163.54C382.586 162.28 384.866 160.36 386.726 157.78C388.646 155.2 390.116 151.96 391.136 148.06C392.156 144.1 392.666 139.45 392.666 134.11C392.666 128.71 392.216 124.15 391.316 120.43C390.476 116.65 389.246 113.59 387.626 111.25C386.006 108.91 384.026 107.2 381.686 106.12C379.406 105.04 376.796 104.5 373.856 104.5C369.236 104.5 365.306 105.49 362.066 107.47C358.826 109.39 355.766 112.12 352.886 115.66V157.06ZM351.716 101.26C355.496 97 359.786 93.55 364.586 90.91C369.386 88.27 375.026 86.95 381.506 86.95C386.546 86.95 391.136 88 395.276 90.1C399.476 92.2 403.076 95.26 406.076 99.28C409.136 103.24 411.476 108.16 413.096 114.04C414.776 119.86 415.616 126.55 415.616 134.11C415.616 141.01 414.686 147.4 412.826 153.28C410.966 159.16 408.296 164.26 404.816 168.58C401.396 172.9 397.226 176.29 392.306 178.75C387.446 181.15 381.986 182.35 375.926 182.35C370.766 182.35 366.356 181.57 362.696 180.01C359.036 178.39 355.766 176.17 352.886 173.35V211.15H330.656V88.66H344.246C347.126 88.66 349.016 90.01 349.916 92.71L351.716 101.26ZM119.79 332.29C124.23 332.29 128.1 331.75 131.4 330.67C134.7 329.53 137.43 327.94 139.59 325.9C141.81 323.8 143.46 321.28 144.54 318.34C145.62 315.34 146.16 312.01 146.16 308.35C146.16 304.87 145.62 301.72 144.54 298.9C143.46 296.08 141.84 293.68 139.68 291.7C137.52 289.72 134.79 288.22 131.49 287.2C128.19 286.12 124.29 285.58 119.79 285.58H101.7V332.29H119.79ZM119.79 266.86C128.49 266.86 136.02 267.88 142.38 269.92C148.74 271.96 153.99 274.81 158.13 278.47C162.27 282.13 165.33 286.51 167.31 291.61C169.35 296.71 170.37 302.29 170.37 308.35C170.37 314.65 169.32 320.44 167.22 325.72C165.12 330.94 161.97 335.44 157.77 339.22C153.57 343 148.29 345.94 141.93 348.04C135.63 350.14 128.25 351.19 119.79 351.19H101.7V397H77.49V266.86H119.79ZM225.574 263.26V397H203.344V263.26H225.574ZM314.502 357.58C308.082 357.88 302.682 358.45 298.302 359.29C293.922 360.07 290.412 361.09 287.772 362.35C285.132 363.61 283.242 365.08 282.102 366.76C280.962 368.44 280.392 370.27 280.392 372.25C280.392 376.15 281.532 378.94 283.812 380.62C286.152 382.3 289.182 383.14 292.902 383.14C297.462 383.14 301.392 382.33 304.692 380.71C308.052 379.03 311.322 376.51 314.502 373.15V357.58ZM263.562 317.53C274.182 307.81 286.962 302.95 301.902 302.95C307.302 302.95 312.132 303.85 316.392 305.65C320.652 307.39 324.252 309.85 327.192 313.03C330.132 316.15 332.352 319.9 333.852 324.28C335.412 328.66 336.192 333.46 336.192 338.68V397H326.112C324.012 397 322.392 396.7 321.252 396.1C320.112 395.44 319.212 394.15 318.552 392.23L316.572 385.57C314.232 387.67 311.952 389.53 309.732 391.15C307.512 392.71 305.202 394.03 302.802 395.11C300.402 396.19 297.822 397 295.062 397.54C292.362 398.14 289.362 398.44 286.062 398.44C282.162 398.44 278.562 397.93 275.262 396.91C271.962 395.83 269.112 394.24 266.712 392.14C264.312 390.04 262.452 387.43 261.132 384.31C259.812 381.19 259.152 377.56 259.152 373.42C259.152 371.08 259.542 368.77 260.322 366.49C261.102 364.15 262.362 361.93 264.102 359.83C265.902 357.73 268.212 355.75 271.032 353.89C273.852 352.03 277.302 350.41 281.382 349.03C285.522 347.65 290.322 346.54 295.782 345.7C301.242 344.8 307.482 344.26 314.502 344.08V338.68C314.502 332.5 313.182 327.94 310.542 325C307.902 322 304.092 320.5 299.112 320.5C295.512 320.5 292.512 320.92 290.112 321.76C287.772 322.6 285.702 323.56 283.902 324.64C282.102 325.66 280.452 326.59 278.952 327.43C277.512 328.27 275.892 328.69 274.092 328.69C272.532 328.69 271.212 328.3 270.132 327.52C269.052 326.68 268.182 325.72 267.522 324.64L263.562 317.53ZM395.918 316C397.778 314.14 399.728 312.43 401.768 310.87C403.868 309.25 406.058 307.9 408.338 306.82C410.678 305.68 413.168 304.81 415.808 304.21C418.448 303.55 421.328 303.22 424.448 303.22C429.488 303.22 433.958 304.09 437.858 305.83C441.758 307.51 444.998 309.91 447.578 313.03C450.218 316.09 452.198 319.78 453.518 324.1C454.898 328.36 455.588 333.07 455.588 338.23V397H433.358V338.23C433.358 332.59 432.068 328.24 429.488 325.18C426.908 322.06 422.978 320.5 417.698 320.5C413.858 320.5 410.258 321.37 406.898 323.11C403.538 324.85 400.358 327.22 397.358 330.22V397H375.128V304.66H388.718C391.598 304.66 393.488 306.01 394.388 308.71L395.918 316ZM515.52 316C517.38 314.14 519.33 312.43 521.37 310.87C523.47 309.25 525.66 307.9 527.94 306.82C530.28 305.68 532.77 304.81 535.41 304.21C538.05 303.55 540.93 303.22 544.05 303.22C549.09 303.22 553.56 304.09 557.46 305.83C561.36 307.51 564.6 309.91 567.18 313.03C569.82 316.09 571.8 319.78 573.12 324.1C574.5 328.36 575.19 333.07 575.19 338.23V397H552.96V338.23C552.96 332.59 551.67 328.24 549.09 325.18C546.51 322.06 542.58 320.5 537.3 320.5C533.46 320.5 529.86 321.37 526.5 323.11C523.14 324.85 519.96 327.22 516.96 330.22V397H494.73V304.66H508.32C511.2 304.66 513.09 306.01 513.99 308.71L515.52 316ZM673.822 340.21C673.822 337.33 673.402 334.63 672.562 332.11C671.782 329.53 670.582 327.28 668.962 325.36C667.342 323.44 665.272 321.94 662.752 320.86C660.292 319.72 657.412 319.15 654.112 319.15C647.692 319.15 642.622 320.98 638.902 324.64C635.242 328.3 632.902 333.49 631.882 340.21H673.822ZM631.432 353.62C631.792 358.36 632.632 362.47 633.952 365.95C635.272 369.37 637.012 372.22 639.172 374.5C641.332 376.72 643.882 378.4 646.822 379.54C649.822 380.62 653.122 381.16 656.722 381.16C660.322 381.16 663.412 380.74 665.992 379.9C668.632 379.06 670.912 378.13 672.832 377.11C674.812 376.09 676.522 375.16 677.962 374.32C679.462 373.48 680.902 373.06 682.282 373.06C684.142 373.06 685.522 373.75 686.422 375.13L692.812 383.23C690.352 386.11 687.592 388.54 684.532 390.52C681.472 392.44 678.262 394 674.902 395.2C671.602 396.34 668.212 397.15 664.732 397.63C661.312 398.11 657.982 398.35 654.742 398.35C648.322 398.35 642.352 397.3 636.832 395.2C631.312 393.04 626.512 389.89 622.432 385.75C618.352 381.55 615.142 376.39 612.802 370.27C610.462 364.09 609.292 356.95 609.292 348.85C609.292 342.55 610.312 336.64 612.352 331.12C614.392 325.54 617.302 320.71 621.082 316.63C624.922 312.49 629.572 309.22 635.032 306.82C640.552 304.42 646.762 303.22 653.662 303.22C659.482 303.22 664.852 304.15 669.772 306.01C674.692 307.87 678.922 310.6 682.462 314.2C686.002 317.74 688.762 322.12 690.742 327.34C692.782 332.5 693.802 338.41 693.802 345.07C693.802 348.43 693.442 350.71 692.722 351.91C692.002 353.05 690.622 353.62 688.582 353.62H631.432ZM749.454 320.68C752.334 315.16 755.754 310.84 759.714 307.72C763.674 304.54 768.354 302.95 773.754 302.95C778.014 302.95 781.434 303.88 784.014 305.74L782.574 322.39C782.274 323.47 781.824 324.25 781.224 324.73C780.684 325.15 779.934 325.36 778.974 325.36C778.074 325.36 776.724 325.21 774.924 324.91C773.184 324.61 771.474 324.46 769.794 324.46C767.334 324.46 765.144 324.82 763.224 325.54C761.304 326.26 759.564 327.31 758.004 328.69C756.504 330.01 755.154 331.63 753.954 333.55C752.814 335.47 751.734 337.66 750.714 340.12V397H728.484V304.66H741.534C743.814 304.66 745.404 305.08 746.304 305.92C747.204 306.7 747.804 308.14 748.104 310.24L749.454 320.68Z" fill="#EDC14F"/>
</g>
<g filter="url(#filter4_d_1_57)">
<path d="M706.916 39.3514V107.552" stroke="#101010" stroke-width="3" stroke-linecap="round"/>
</g>
<g filter="url(#filter5_d_1_57)">
<path d="M638.848 52.1258C618.732 51.9994 604.848 67.339 604.848 67.339L562.957 110.269L486.14 79.5452C466.75 76.2083 455 88.25 449.125 94.2708L443.666 99.8656C443.449 100.088 443.485 100.452 443.741 100.628L520.048 152.783C519.324 153.524 506.472 169.47 490.803 186.926C489.934 187.894 488.608 188.296 487.338 188.099L461.099 175.67C457.398 174.234 453.219 175.155 450.421 178.023L432.415 196.476C431.954 196.948 432.069 197.729 432.646 198.049L484.375 226.729L512.34 279.702C512.656 280.302 513.466 280.419 513.94 279.934L531.902 261.526C534.7 258.658 535.598 254.376 534.198 250.582L522.069 223.692C521.877 222.391 522.27 221.032 523.214 220.142C540.247 204.083 555.806 190.913 556.53 190.171L607.409 268.351C607.584 268.62 607.963 268.657 608.186 268.428L613.625 262.854C625.375 250.812 631.25 232.75 627.994 224.92L598.014 146.196L639.904 103.266C639.904 103.266 654.873 89.0373 654.749 68.4221C654.695 59.3715 647.679 52.1815 638.848 52.1258Z" fill="#0F1A2E"/>
</g>
<g filter="url(#filter6_d_1_57)">
<path d="M728.07 129.125C716.3 129.052 708.177 138.022 708.177 138.022L683.667 163.126L638.72 145.16C627.375 143.208 620.5 150.25 617.062 153.771L614.041 156.865C613.824 157.088 613.86 157.452 614.117 157.628L658.56 187.987C658.136 188.421 650.617 197.746 641.449 207.953C640.94 208.519 640.164 208.755 639.421 208.639L624.069 201.371C621.903 200.531 619.458 201.07 617.821 202.747L607.666 213.148C607.205 213.62 607.319 214.402 607.897 214.721L637.688 231.229L653.784 261.703C654.101 262.303 654.91 262.42 655.384 261.935L665.496 251.577C667.133 249.9 667.659 247.396 666.839 245.178L659.743 229.453C659.63 228.692 659.86 227.898 660.412 227.377C670.378 217.986 679.482 210.284 679.906 209.851L709.534 255.352C709.709 255.62 710.087 255.657 710.311 255.428L713.312 252.354C720.188 245.313 723.625 234.75 721.72 230.171L704.179 184.135L728.689 159.031C728.689 159.031 737.447 150.71 737.375 138.655C737.343 133.363 733.238 129.158 728.07 129.125Z" fill="#545151" fill-opacity="0.1"/>
</g>
<g filter="url(#filter7_d_1_57)">
<path d="M706.5 38.5L727.5 30L747.5 38.5L758 33.5V71" stroke="black"/>
</g>
<g style="mix-blend-mode:darken" filter="url(#filter8_d_1_57)">
<path d="M727.2 30L706 38.4105V77L727.2 68.5895L748.4 77L757.99 70.0737L759 32.9684L748.4 38.4105L727.2 30Z" stroke="black" shape-rendering="crispEdges"/>
</g>
<g filter="url(#filter9_d_1_57)">
<path d="M727 34.5V65M748 42V72.5" stroke="black"/>
</g>
<g filter="url(#filter10_d_1_57)">
<path d="M707 108C883 119 792 199 911 232" stroke="#876D6D" stroke-width="2"/>
</g>
</g>
<defs>
<filter id="filter0_d_1_57" x="2" y="3" width="1032" height="458" filterUnits="userSpaceOnUse" color-interpolation-filters="sRGB">
<feFlood flood-opacity="0" result="BackgroundImageFix"/>
<feColorMatrix in="SourceAlpha" type="matrix" values="0 0 0 0 0 0 0 0 0 0 0 0 0 0 0 0 0 0 127 0" result="hardAlpha"/>
<feOffset dy="4"/>
<feGaussianBlur stdDeviation="2"/>
<feComposite in2="hardAlpha" operator="out"/>
<feColorMatrix type="matrix" values="0 0 0 0 0 0 0 0 0 0 0 0 0 0 0 0 0 0 0.25 0"/>
<feBlend mode="normal" in2="BackgroundImageFix" result="effect1_dropShadow_1_57"/>
<feBlend mode="normal" in="SourceGraphic" in2="effect1_dropShadow_1_57" result="shape"/>
</filter>
<filter id="filter1_d_1_57" x="528.563" y="42.486" width="378.148" height="379.029" filterUnits="userSpaceOnUse" color-interpolation-filters="sRGB">
<feFlood flood-opacity="0" result="BackgroundImageFix"/>
<feColorMatrix in="SourceAlpha" type="matrix" values="0 0 0 0 0 0 0 0 0 0 0 0 0 0 0 0 0 0 127 0" result="hardAlpha"/>
<feOffset dy="4"/>
<feGaussianBlur stdDeviation="2"/>
<feComposite in2="hardAlpha" operator="out"/>
<feColorMatrix type="matrix" values="0 0 0 0 0 0 0 0 0 0 0 0 0 0 0 0 0 0 0.25 0"/>
<feBlend mode="normal" in2="BackgroundImageFix" result="effect1_dropShadow_1_57"/>
<feBlend mode="normal" in="SourceGraphic" in2="effect1_dropShadow_1_57" result="shape"/>
</filter>
<filter id="filter2_d_1_57" x="594" y="23" width="398" height="398" filterUnits="userSpaceOnUse" color-interpolation-filters="sRGB">
<feFlood flood-opacity="0" result="BackgroundImageFix"/>
<feColorMatrix in="SourceAlpha" type="matrix" values="0 0 0 0 0 0 0 0 0 0 0 0 0 0 0 0 0 0 127 0" result="hardAlpha"/>
<feOffset dy="4"/>
<feGaussianBlur stdDeviation="2"/>
<feComposite in2="hardAlpha" operator="out"/>
<feColorMatrix type="matrix" values="0 0 0 0 0 0 0 0 0 0 0 0 0 0 0 0 0 0 0.25 0"/>
<feBlend mode="normal" in2="BackgroundImageFix" result="effect1_dropShadow_1_57"/>
<feBlend mode="normal" in="SourceGraphic" in2="effect1_dropShadow_1_57" result="shape"/>
</filter>
<filter id="filter3_d_1_57" x="61.7" y="47.53" width="726.314" height="358.91" filterUnits="userSpaceOnUse" color-interpolation-filters="sRGB">
<feFlood flood-opacity="0" result="BackgroundImageFix"/>
<feColorMatrix in="SourceAlpha" type="matrix" values="0 0 0 0 0 0 0 0 0 0 0 0 0 0 0 0 0 0 127 0" result="hardAlpha"/>
<feOffset dy="4"/>
<feGaussianBlur stdDeviation="2"/>
<feComposite in2="hardAlpha" operator="out"/>
<feColorMatrix type="matrix" values="0 0 0 0 0 0 0 0 0 0 0 0 0 0 0 0 0 0 0.25 0"/>
<feBlend mode="normal" in2="BackgroundImageFix" result="effect1_dropShadow_1_57"/>
<feBlend mode="normal" in="SourceGraphic" in2="effect1_dropShadow_1_57" result="shape"/>
</filter>
<filter id="filter4_d_1_57" x="701.416" y="37.8514" width="11" height="79.2009" filterUnits="userSpaceOnUse" color-interpolation-filters="sRGB">
<feFlood flood-opacity="0" result="BackgroundImageFix"/>
<feColorMatrix in="SourceAlpha" type="matrix" values="0 0 0 0 0 0 0 0 0 0 0 0 0 0 0 0 0 0 127 0" result="hardAlpha"/>
<feOffset dy="4"/>
<feGaussianBlur stdDeviation="2"/>
<feComposite in2="hardAlpha" operator="out"/>
<feColorMatrix type="matrix" values="0 0 0 0 0 0 0 0 0 0 0 0 0 0 0 0 0 0 0.25 0"/>
<feBlend mode="normal" in2="BackgroundImageFix" result="effect1_dropShadow_1_57"/>
<feBlend mode="normal" in="SourceGraphic" in2="effect1_dropShadow_1_57" result="shape"/>
</filter>
<filter id="filter5_d_1_57" x="404" y="16" width="290" height="297" filterUnits="userSpaceOnUse" color-interpolation-filters="sRGB">
<feFlood flood-opacity="0" result="BackgroundImageFix"/>
<feColorMatrix in="SourceAlpha" type="matrix" values="0 0 0 0 0 0 0 0 0 0 0 0 0 0 0 0 0 0 127 0" result="hardAlpha"/>
<feOffset dy="4"/>
<feGaussianBlur stdDeviation="2"/>
<feComposite in2="hardAlpha" operator="out"/>
<feColorMatrix type="matrix" values="0 0 0 0 0 0 0 0 0 0 0 0 0 0 0 0 0 0 0.25 0"/>
<feBlend mode="normal" in2="BackgroundImageFix" result="effect1_dropShadow_1_57"/>
<feBlend mode="normal" in="SourceGraphic" in2="effect1_dropShadow_1_57" result="shape"/>
</filter>
<filter id="filter6_d_1_57" x="589" y="108" width="173" height="177" filterUnits="userSpaceOnUse" color-interpolation-filters="sRGB">
<feFlood flood-opacity="0" result="BackgroundImageFix"/>
<feColorMatrix in="SourceAlpha" type="matrix" values="0 0 0 0 0 0 0 0 0 0 0 0 0 0 0 0 0 0 127 0" result="hardAlpha"/>
<feOffset dy="4"/>
<feGaussianBlur stdDeviation="2"/>
<feComposite in2="hardAlpha" operator="out"/>
<feColorMatrix type="matrix" values="0 0 0 0 0 0 0 0 0 0 0 0 0 0 0 0 0 0 0.25 0"/>
<feBlend mode="normal" in2="BackgroundImageFix" result="effect1_dropShadow_1_57"/>
<feBlend mode="normal" in="SourceGraphic" in2="effect1_dropShadow_1_57" result="shape"/>
</filter>
<filter id="filter7_d_1_57" x="702.312" y="29.4587" width="60.1876" height="49.5413" filterUnits="userSpaceOnUse" color-interpolation-filters="sRGB">
<feFlood flood-opacity="0" result="BackgroundImageFix"/>
<feColorMatrix in="SourceAlpha" type="matrix" values="0 0 0 0 0 0 0 0 0 0 0 0 0 0 0 0 0 0 127 0" result="hardAlpha"/>
<feOffset dy="4"/>
<feGaussianBlur stdDeviation="2"/>
<feComposite in2="hardAlpha" operator="out"/>
<feColorMatrix type="matrix" values="0 0 0 0 0 0 0 0 0 0 0 0 0 0 0 0 0 0 0.25 0"/>
<feBlend mode="normal" in2="BackgroundImageFix" result="effect1_dropShadow_1_57"/>
<feBlend mode="normal" in="SourceGraphic" in2="effect1_dropShadow_1_57" result="shape"/>
</filter>
<filter id="filter8_d_1_57" x="701.5" y="29.4621" width="62.0228" height="56.2742" filterUnits="userSpaceOnUse" color-interpolation-filters="sRGB">
<feFlood flood-opacity="0" result="BackgroundImageFix"/>
<feColorMatrix in="SourceAlpha" type="matrix" values="0 0 0 0 0 0 0 0 0 0 0 0 0 0 0 0 0 0 127 0" result="hardAlpha"/>
<feOffset dy="4"/>
<feGaussianBlur stdDeviation="2"/>
<feComposite in2="hardAlpha" operator="out"/>
<feColorMatrix type="matrix" values="0 0 0 0 0 0 0 0 0 0 0 0 0 0 0 0 0 0 0.25 0"/>
<feBlend mode="normal" in2="BackgroundImageFix" result="effect1_dropShadow_1_57"/>
<feBlend mode="normal" in="SourceGraphic" in2="effect1_dropShadow_1_57" result="shape"/>
</filter>
<filter id="filter9_d_1_57" x="722.5" y="34.5" width="30" height="46" filterUnits="userSpaceOnUse" color-interpolation-filters="sRGB">
<feFlood flood-opacity="0" result="BackgroundImageFix"/>
<feColorMatrix in="SourceAlpha" type="matrix" values="0 0 0 0 0 0 0 0 0 0 0 0 0 0 0 0 0 0 127 0" result="hardAlpha"/>
<feOffset dy="4"/>
<feGaussianBlur stdDeviation="2"/>
<feComposite in2="hardAlpha" operator="out"/>
<feColorMatrix type="matrix" values="0 0 0 0 0 0 0 0 0 0 0 0 0 0 0 0 0 0 0.25 0"/>
<feBlend mode="normal" in2="BackgroundImageFix" result="effect1_dropShadow_1_57"/>
<feBlend mode="normal" in="SourceGraphic" in2="effect1_dropShadow_1_57" result="shape"/>
</filter>
<filter id="filter10_d_1_57" x="702.938" y="107.002" width="212.33" height="133.962" filterUnits="userSpaceOnUse" color-interpolation-filters="sRGB">
<feFlood flood-opacity="0" result="BackgroundImageFix"/>
<feColorMatrix in="SourceAlpha" type="matrix" values="0 0 0 0 0 0 0 0 0 0 0 0 0 0 0 0 0 0 127 0" result="hardAlpha"/>
<feOffset dy="4"/>
<feGaussianBlur stdDeviation="2"/>
<feComposite in2="hardAlpha" operator="out"/>
<feColorMatrix type="matrix" values="0 0 0 0 0 0 0 0 0 0 0 0 0 0 0 0 0 0 0.25 0"/>
<feBlend mode="normal" in2="BackgroundImageFix" result="effect1_dropShadow_1_57"/>
<feBlend mode="normal" in="SourceGraphic" in2="effect1_dropShadow_1_57" result="shape"/>
</filter>
<clipPath id="clip0_1_57">
<rect width="1036" height="456" rx="2" fill="white"/>
</clipPath>
</defs>
</svg>
